<?xml version="1.0" standalone="no"?>
<!DOCTYPE svg PUBLIC "-//W3C//DTD SVG 20010904//EN"
 "http://www.w3.org/TR/2001/REC-SVG-20010904/DTD/svg10.dtd">
<svg version="1.0" xmlns="http://www.w3.org/2000/svg"
 width="640.000000pt" height="640.000000pt" viewBox="0 0 640.000000 640.000000"
 preserveAspectRatio="xMidYMid meet">
<metadata>
Created by potrace 1.14, written by Peter Selinger 2001-2017
</metadata>
<g transform="translate(0.000000,640.000000) scale(0.100000,-0.100000)"
fill="#000000" stroke="none">
<path d="M1644 5843 c-37 -56 -55 -95 -68 -154 -8 -33 -19 -66 -24 -72 -6 -7
-13 -29 -17 -49 -11 -58 -21 -61 -116 -29 -46 16 -132 40 -190 55 -122 30
-153 26 -163 -21 -15 -71 -26 -175 -26 -250 0 -59 -4 -83 -12 -84 -25 -1 -164
-18 -227 -28 -61 -9 -101 -32 -101 -56 0 -6 18 -35 39 -64 21 -28 44 -65 51
-81 7 -17 16 -30 20 -30 4 0 10 -10 14 -22 3 -13 35 -63 70 -113 78 -108 73
-102 120 -143 l37 -32 -21 -73 c-17 -57 -23 -108 -27 -242 l-5 -170 -34 -50
c-51 -77 -90 -210 -107 -374 -20 -186 123 -639 239 -755 l25 -24 -25 -37 c-38
-56 -69 -143 -74 -211 -3 -49 2 -80 23 -145 31 -96 49 -126 119 -192 74 -70
116 -94 217 -127 68 -23 110 -30 166 -30 59 0 83 -5 110 -21 l33 -21 -29 -34
c-35 -39 -47 -98 -36 -180 4 -34 3 -59 -3 -63 -28 -18 -62 -87 -62 -126 0 -26
-6 -48 -15 -55 -8 -7 -15 -18 -15 -25 0 -6 -10 -17 -22 -22 -13 -6 -46 -31
-75 -54 -28 -24 -75 -62 -103 -84 -28 -22 -66 -53 -83 -69 -18 -16 -63 -52
-102 -82 -38 -29 -95 -73 -125 -98 -30 -24 -73 -57 -95 -72 -22 -16 -49 -36
-60 -45 -65 -56 -446 -229 -505 -229 -11 0 -41 -9 -67 -19 -27 -10 -91 -24
-143 -31 -99 -12 -130 -17 -142 -19 -5 0 -8 -28 -8 -61 l0 -60 36 0 c89 0 388
62 483 99 58 24 258 120 306 149 17 10 53 31 80 46 122 71 293 205 489 381
150 135 187 166 195 161 17 -11 44 -94 38 -118 -8 -32 -79 -148 -146 -238 -81
-110 -192 -221 -313 -313 -93 -70 -126 -102 -116 -112 5 -5 181 116 232 159
26 21 49 37 51 35 11 -11 -137 -161 -246 -250 -68 -56 -125 -107 -127 -114 -2
-7 10 -14 28 -17 25 -4 35 0 51 24 37 51 88 64 55 14 -24 -37 -21 -56 10 -56
51 0 287 264 359 399 11 21 25 45 32 53 7 7 40 70 73 138 95 191 104 210 111
210 4 0 14 -10 22 -22 74 -108 205 -202 362 -258 33 -12 74 -28 90 -35 17 -7
42 -17 58 -20 30 -8 47 -25 24 -25 -8 0 -59 -22 -112 -49 -88 -46 -108 -62
-248 -203 -84 -84 -181 -173 -216 -198 -35 -25 -80 -59 -100 -76 -54 -46 -170
-124 -186 -124 -8 0 -18 -6 -22 -13 -4 -7 -39 -30 -78 -52 -229 -125 -426
-263 -456 -317 -9 -16 -3 -18 63 -18 81 0 73 -4 323 177 44 32 94 65 111 75
17 9 59 35 94 57 35 23 65 40 67 38 2 -2 -4 -24 -12 -48 -20 -54 -31 -222 -18
-269 l9 -35 60 0 c58 0 59 1 59 28 -1 15 4 27 10 27 7 0 7 3 0 8 -30 21 -47
128 -25 162 5 8 5 17 1 20 -8 5 17 151 28 160 3 3 6 10 6 16 0 6 23 30 50 53
28 23 69 61 93 84 l42 41 0 -36 c0 -20 5 -40 11 -44 17 -10 66 44 120 132 64
104 131 179 222 247 71 54 146 97 167 97 8 0 9 -17 5 -54 -6 -43 -3 -61 14
-94 12 -24 20 -54 18 -74 -5 -50 21 -108 75 -163 26 -27 48 -55 48 -61 0 -16
54 -61 82 -69 40 -12 108 -45 108 -53 0 -9 57 -45 80 -50 62 -15 201 -27 235
-21 97 19 126 28 176 56 40 23 56 38 63 62 5 18 16 31 25 31 9 0 27 7 39 16
13 9 26 13 30 9 4 -4 8 -78 9 -165 2 -132 -1 -168 -16 -217 -34 -102 -40 -132
-30 -139 16 -10 1393 -6 1397 4 2 6 -11 33 -28 61 -16 29 -30 55 -30 59 0 4
-11 19 -25 34 -14 15 -25 30 -25 33 0 4 -11 30 -24 58 -33 71 -54 135 -60 188
-17 135 -18 161 -6 204 13 46 13 46 34 27 28 -24 53 -39 171 -102 88 -48 106
-54 153 -52 77 4 101 3 158 -4 38 -4 60 -1 85 11 42 22 79 55 79 71 0 7 24 20
53 28 76 24 123 85 133 174 5 51 12 70 34 92 17 18 30 44 34 72 8 50 -8 142
-29 175 -8 12 -15 35 -15 50 0 34 -34 110 -62 140 -20 21 -20 23 -3 72 9 28
19 51 22 51 19 0 114 -87 171 -157 133 -162 207 -314 231 -468 21 -142 6 -294
-46 -445 -31 -91 -42 -113 -100 -199 -42 -63 -147 -171 -166 -171 -4 0 -5 -4
-2 -10 3 -5 43 -10 87 -10 l81 0 53 58 c32 34 56 70 60 89 3 17 15 40 26 50
20 18 58 84 58 101 0 5 7 26 15 47 13 31 18 35 31 24 17 -14 19 -12 28 17 4
13 1 26 -9 34 -18 15 -20 57 -4 97 26 69 7 372 -28 438 -34 66 -73 152 -73
165 0 8 -16 35 -35 59 -19 24 -35 49 -35 56 0 6 -38 51 -85 99 -83 84 -186
161 -232 172 -22 6 -23 10 -17 63 4 31 8 57 9 58 1 2 26 -20 56 -48 53 -50
260 -235 329 -294 46 -39 172 -169 217 -222 33 -41 38 -43 87 -43 42 0 57 -5
74 -23 29 -31 37 -71 19 -97 -14 -20 -10 -30 80 -162 52 -77 121 -190 154
-251 l59 -112 0 108 c0 118 -2 123 -84 247 -20 30 -39 62 -42 72 -3 10 20 52
61 111 l65 95 0 550 0 551 -79 83 c-58 61 -93 89 -134 107 l-55 24 54 45 c30
24 54 50 54 57 0 7 7 18 16 26 8 7 29 42 46 78 52 111 59 275 16 371 -24 53
-119 181 -162 217 -38 32 -26 60 23 55 18 -2 43 4 58 13 24 16 26 16 54 -11
15 -15 45 -54 66 -87 l38 -61 3 209 c3 228 3 225 -60 263 -26 15 -28 21 -28
80 0 35 -5 73 -11 85 -24 44 -71 96 -101 112 -52 26 -146 46 -182 40 -32 -6
-33 -5 -39 27 -12 76 -57 146 -135 210 -29 24 -31 29 -20 48 11 17 11 22 -1
29 -7 5 -22 6 -32 4 -23 -6 -79 -68 -79 -88 0 -23 20 -28 41 -9 19 17 21 16
54 -16 38 -37 85 -122 85 -153 0 -17 -5 -18 -42 -10 -24 4 -75 8 -114 7 -66
-1 -75 -3 -138 -45 -54 -35 -72 -54 -93 -96 -22 -45 -29 -53 -54 -53 -44 0
-75 -19 -98 -60 -15 -27 -41 -49 -84 -74 -34 -19 -87 -60 -117 -90 l-54 -56
-30 48 c-29 48 -62 83 -93 100 -15 9 -15 13 -2 43 13 34 18 155 10 289 -2 36
-1 121 2 189 4 68 2 162 -4 210 -5 47 -12 104 -15 125 -4 37 -32 131 -69 234
-20 57 -52 119 -65 127 -6 3 -28 39 -50 78 -21 40 -57 92 -79 117 -22 25 -41
48 -41 52 0 12 -95 97 -143 128 -27 19 -51 45 -61 69 -37 81 -236 263 -361
329 -229 121 -430 157 -701 128 l-151 -16 -44 24 c-66 37 -214 91 -304 112
-148 35 -474 20 -580 -26 -11 -5 -31 -12 -45 -15 -48 -13 -163 -77 -228 -126
-36 -27 -68 -49 -72 -49 -8 0 -39 33 -54 58 -6 10 -20 33 -31 51 -46 76 -72
112 -113 156 -54 56 -98 62 -128 18z m103 -65 c51 -55 170 -212 177 -233 5
-17 -4 -29 -45 -59 -50 -39 -111 -107 -121 -136 -3 -9 -31 -24 -62 -33 -109
-35 -322 -172 -407 -264 -52 -55 -145 -193 -180 -265 -13 -27 -26 -48 -29 -48
-15 0 -188 239 -226 312 -8 15 -28 43 -45 62 -33 38 -33 38 46 52 22 3 73 15
113 25 40 11 77 17 82 14 35 -21 74 58 69 139 -1 22 -2 76 -1 118 2 99 11 105
108 77 38 -11 92 -26 119 -34 28 -8 73 -19 100 -26 28 -6 55 -18 62 -26 6 -8
22 -13 34 -11 26 3 52 65 98 228 42 151 55 164 108 108z m853 -367 c0 -11 -4
-22 -8 -25 -14 -9 -35 12 -29 28 9 23 37 20 37 -3z m1614 -457 c22 -21 4 -54
-29 -54 -14 0 -25 2 -25 4 0 2 -3 11 -6 19 -5 14 20 47 36 47 5 0 16 -7 24
-16z m-799 -244 c63 -69 239 -120 474 -137 77 -5 97 -10 110 -26 9 -11 31 -37
49 -57 17 -21 32 -40 32 -42 0 -3 -25 1 -56 9 -74 19 -168 5 -226 -34 -62 -42
-60 -58 4 -32 76 31 132 40 222 37 70 -2 83 -5 119 -33 100 -76 149 -107 252
-158 61 -30 126 -61 145 -68 19 -7 40 -17 47 -22 7 -5 32 -15 55 -21 40 -12
44 -16 55 -62 20 -76 43 -312 43 -428 0 -91 4 -116 29 -188 58 -162 76 -399
42 -543 -10 -44 -22 -98 -26 -120 -12 -70 -91 -201 -181 -299 -98 -106 -191
-186 -217 -186 -9 0 -48 15 -85 34 -44 22 -101 40 -165 51 -85 15 -110 16
-195 5 -184 -23 -261 -50 -374 -131 -37 -27 -70 -49 -73 -49 -4 0 -40 22 -81
50 -93 61 -216 109 -298 117 -58 5 -64 4 -80 -18 -18 -27 -21 -71 -6 -100 9
-17 22 -19 99 -19 92 0 164 -18 214 -53 l29 -19 -79 -36 c-86 -38 -145 -77
-211 -135 -40 -36 -46 -38 -90 -32 -105 15 -225 39 -377 77 -88 22 -175 40
-194 40 -79 0 -385 149 -531 258 -30 22 -71 45 -93 51 -35 9 -40 8 -65 -19
-46 -49 -79 -60 -157 -56 -69 4 -158 28 -245 66 -59 26 -155 131 -182 201 -15
37 -21 75 -21 133 0 74 3 87 34 140 42 74 72 100 134 115 117 29 215 3 290
-79 57 -61 112 -93 143 -81 26 10 27 24 6 75 -34 80 -84 296 -84 359 0 27 7
37 40 60 49 34 143 139 194 216 56 85 104 219 131 364 13 72 25 146 27 165 2
26 8 36 23 38 44 8 225 104 312 166 54 38 93 60 96 53 3 -9 18 -9 63 1 79 16
169 15 219 -3 48 -18 45 -17 45 -6 0 37 -203 86 -251 61 -38 -21 -33 -1 13 48
25 27 65 79 88 116 l43 68 18 -52 c18 -53 77 -136 136 -196 77 -77 176 -126
326 -159 82 -18 218 -17 322 4 82 16 214 71 231 96 15 23 10 55 -8 55 -21 0
-134 62 -165 90 -58 53 -121 138 -141 192 -38 104 -37 132 3 88z m-1513 -7
c35 -41 39 -59 17 -87 -38 -48 -129 -20 -129 41 0 52 78 84 112 46z m2586
-141 c2 -14 -2 -22 -12 -22 -19 0 -29 17 -22 36 8 22 30 12 34 -14z m-3108
-771 c0 -6 -4 -13 -10 -16 -5 -3 -10 1 -10 9 0 9 5 16 10 16 6 0 10 -4 10 -9z
m4343 -125 c8 -20 -13 -44 -45 -52 -36 -8 -48 18 -23 46 21 23 60 26 68 6z
m-812 -179 c68 -46 99 -124 99 -252 0 -110 -26 -201 -71 -246 -32 -32 -39 -23
-39 47 0 37 -9 120 -20 186 -11 65 -18 123 -15 128 4 6 21 10 38 10 30 1 31 1
13 15 -11 8 -30 15 -42 15 -17 0 -26 10 -38 47 -9 26 -16 53 -16 60 0 21 54
15 91 -10z m-3500 -187 c20 -11 49 -60 49 -83 0 -25 -51 -67 -82 -67 -58 0
-100 78 -65 122 27 34 65 45 98 28z m4094 -30 c0 -9 -13 -17 -35 -21 -53 -8
-157 -68 -186 -107 -9 -11 -13 -12 -14 -4 0 16 73 93 120 127 40 28 115 32
115 5z m246 -382 c51 -27 71 -44 103 -93 36 -52 41 -67 44 -128 5 -84 -15
-144 -64 -187 -56 -49 -99 -63 -195 -64 -83 -1 -90 1 -165 40 -91 48 -105 67
-112 163 -7 108 23 182 99 243 84 67 189 77 290 26z m-775 -60 c27 -38 29 -49
31 -139 2 -98 2 -98 42 -153 23 -31 50 -60 60 -66 28 -14 45 -75 43 -156 -1
-55 -8 -85 -32 -138 -16 -37 -30 -74 -30 -82 0 -18 -14 -17 -80 6 -30 11 -68
19 -84 20 -39 0 -112 -44 -131 -80 -19 -36 -69 -50 -94 -26 -9 9 -38 47 -66
83 -27 37 -77 87 -109 112 l-59 45 29 24 c80 67 209 193 245 240 61 79 125
210 134 270 6 43 12 55 33 67 37 20 36 20 68 -27z m-3146 -533 c28 -34 156
-120 247 -166 87 -44 93 -49 57 -45 -37 5 -77 19 -169 60 -29 13 -49 21 -108
45 -15 6 -38 11 -51 11 -13 0 -38 13 -56 29 l-33 28 39 27 c44 30 57 32 74 11z
m2459 -132 c42 -39 51 -103 20 -132 -15 -14 -36 -21 -62 -21 -32 0 -46 6 -73
36 -42 44 -44 78 -7 116 36 38 82 38 122 1z m-2434 -59 c121 -46 339 -93 500
-108 57 -5 122 -17 210 -37 22 -5 102 -20 178 -32 75 -12 137 -24 137 -27 0
-3 -21 -18 -46 -34 -42 -27 -130 -121 -154 -165 -5 -10 -17 -41 -25 -67 -9
-27 -29 -76 -45 -109 -15 -33 -40 -97 -56 -142 -25 -76 -29 -82 -51 -77 -33 9
-93 -52 -93 -94 0 -24 -7 -34 -37 -52 -37 -22 -39 -22 -88 -5 -103 36 -282
130 -347 182 -91 74 -184 174 -240 259 -56 86 -76 130 -84 192 -5 46 -4 48 40
90 45 43 74 107 62 138 -3 7 1 30 8 51 10 29 20 39 42 44 43 10 46 9 89 -7z
m3856 -79 c182 -52 332 -217 389 -430 31 -113 25 -241 -16 -320 -25 -51 -83
-115 -102 -115 -4 0 -43 33 -86 74 -99 94 -225 201 -340 290 -149 114 -257
207 -262 225 -3 9 -21 50 -41 92 -20 42 -33 84 -30 93 15 38 139 92 247 106
68 10 180 3 241 -15z m-718 -24 c114 -49 220 -217 233 -369 11 -126 -23 -251
-122 -453 -62 -126 -143 -187 -260 -197 -51 -4 -71 0 -115 20 -67 31 -110 66
-149 124 -26 39 -30 54 -29 112 0 37 7 101 16 142 16 79 17 108 7 206 -4 48
-2 63 10 73 24 20 103 -23 145 -79 39 -52 56 -63 46 -29 -16 54 -48 110 -81
138 -24 22 -34 39 -34 60 0 27 2 29 38 27 70 -4 148 -69 198 -167 31 -62 40
-58 21 9 -31 104 -76 168 -147 206 -53 29 -61 47 -33 78 24 27 47 23 122 -21
81 -48 130 -99 172 -183 36 -72 49 -64 23 14 -35 108 -75 165 -164 238 -37 30
-38 48 -2 56 15 3 32 7 37 9 18 6 23 5 68 -14z m-763 -100 c0 -3 -16 -23 -35
-43 -50 -56 -72 -49 -40 12 8 16 23 33 32 38 17 10 43 6 43 -7z m-1241 -105
c9 -10 -2 -27 -52 -77 -38 -39 -76 -91 -96 -132 -33 -67 -36 -103 -4 -58 90
130 186 203 258 199 35 -3 40 -6 43 -29 2 -21 -5 -33 -35 -54 -21 -16 -53 -49
-70 -74 -71 -105 -84 -168 -19 -87 56 67 107 104 154 112 l42 7 0 -61 c0 -58
-2 -62 -35 -88 -36 -27 -102 -130 -91 -142 4 -3 27 15 52 41 65 68 144 96 144
52 0 -8 -11 -43 -25 -78 -15 -35 -32 -109 -41 -172 -28 -202 -60 -268 -155
-319 -30 -16 -64 -38 -76 -49 -34 -30 -135 -26 -214 9 -69 31 -148 115 -169
180 -16 47 -5 279 15 327 7 18 25 86 40 152 14 66 37 138 50 160 29 50 120
154 154 177 32 22 114 24 130 4z m2298 -528 c21 -38 22 -43 8 -71 -15 -29 -14
-32 12 -59 22 -23 28 -40 31 -92 4 -61 3 -65 -31 -102 -25 -29 -36 -52 -42
-89 -4 -27 -13 -62 -21 -77 -19 -37 -72 -74 -117 -82 -30 -6 -43 -15 -63 -48
l-26 -41 -84 7 c-69 5 -89 3 -109 -10 -23 -15 -28 -15 -72 0 -54 19 -232 121
-250 145 -7 9 -16 27 -19 41 -4 14 -15 37 -25 52 -11 14 -19 34 -19 45 0 10
-6 29 -13 43 -33 62 -22 126 24 151 20 10 26 8 52 -22 64 -76 95 -101 165
-134 61 -29 84 -35 140 -35 117 0 223 70 283 185 71 138 134 243 143 239 6 -2
21 -23 33 -46z m-2761 -106 c2 -271 69 -384 256 -431 57 -14 86 -16 131 -10
31 5 81 13 110 17 84 13 158 68 214 160 14 24 29 40 33 35 5 -4 11 -51 14
-104 5 -75 3 -99 -9 -115 -8 -10 -15 -28 -15 -40 0 -46 -22 -82 -57 -99 -19
-9 -42 -30 -51 -45 -24 -41 -81 -70 -170 -85 -42 -7 -79 -12 -82 -10 -3 2 -37
7 -75 10 -85 9 -114 19 -140 50 -13 16 -42 30 -75 39 -37 10 -61 23 -75 41
-11 15 -47 53 -80 85 -59 58 -60 59 -61 117 0 33 -8 75 -18 98 -15 31 -16 46
-8 73 7 22 7 43 1 59 -24 64 -6 110 54 132 22 9 27 16 27 46 0 26 8 45 28 65
15 16 32 29 37 29 6 1 10 -45 11 -117z m888 -1025 c14 -22 -5 -41 -33 -32 -23
7 -29 40 -8 48 18 8 29 3 41 -16z"/>
<path d="M4020 3926 c-80 -18 -132 -49 -177 -103 -52 -62 -71 -100 -75 -149
-4 -51 18 -52 46 -2 73 130 145 183 271 201 67 9 81 8 146 -13 86 -28 143 -69
184 -132 36 -56 71 -76 93 -55 40 41 -86 195 -195 238 -70 27 -209 35 -293 15z"/>
<path d="M2521 3769 c-43 -8 -153 -60 -177 -83 -6 -6 -28 -26 -49 -45 -73 -66
-122 -216 -95 -295 11 -35 14 -37 43 -30 40 8 59 23 53 40 -17 45 59 203 124
257 72 61 105 72 230 72 107 0 119 -2 172 -29 32 -15 78 -46 102 -67 48 -43
59 -47 49 -22 -5 12 -2 15 10 10 31 -12 -7 46 -63 96 -93 84 -259 124 -399 96z"/>
<path d="M3963 3656 c-47 -21 -68 -68 -67 -151 0 -127 59 -195 167 -195 62 0
82 13 112 70 23 45 22 139 -2 187 -38 74 -143 118 -210 89z m66 -92 c27 -35
26 -57 -3 -91 -24 -27 -26 -27 -53 -13 -37 21 -51 71 -29 105 22 33 59 33 85
-1z m91 -73 c0 -17 -18 -21 -24 -6 -3 9 0 15 9 15 8 0 15 -4 15 -9z m10 -71
c21 -39 -12 -68 -70 -60 -57 7 -20 77 42 79 10 1 22 -8 28 -19z m-126 -16 c9
-3 16 -15 16 -26 0 -29 -44 -20 -48 10 -3 23 4 27 32 16z"/>
<path d="M2468 3468 c-54 -44 -96 -150 -83 -209 21 -96 100 -179 171 -179 55
0 105 23 137 64 31 39 32 44 31 126 0 76 -4 90 -29 128 -16 24 -46 52 -66 63
-44 22 -137 26 -161 7z m81 -110 c31 -55 -20 -117 -80 -96 -28 10 -59 46 -59
71 0 7 9 23 21 36 30 32 97 27 118 -11z m81 -74 c0 -14 -21 -19 -33 -7 -9 9
13 34 24 27 5 -3 9 -12 9 -20z m-20 -75 c0 -21 -8 -23 -29 -10 -18 12 -6 42
14 35 8 -3 15 -15 15 -25z m-56 -11 c8 -13 7 -21 -2 -30 -17 -17 -46 1 -50 31
-3 18 1 22 19 19 12 -2 27 -11 33 -20z"/>
<path d="M4279 3166 c-19 -13 -61 -32 -94 -44 l-60 -20 40 -1 c46 -1 111 26
139 58 28 31 15 34 -25 7z"/>
<path d="M3500 3120 c0 -5 8 -10 19 -10 10 0 34 -3 52 -7 31 -6 33 -5 20 10
-15 19 -91 24 -91 7z"/>
<path d="M2450 2950 c0 -18 60 -50 110 -60 38 -7 66 -6 112 5 75 17 106 40 38
28 -80 -14 -162 -9 -212 14 -27 12 -48 18 -48 13z"/>
<path d="M4155 2822 c-140 -124 -228 -195 -307 -248 -40 -26 -93 -66 -118 -87
-88 -76 -91 -76 -260 -50 -81 13 -198 39 -260 58 -61 19 -119 35 -129 35 -9 0
-21 4 -26 9 -6 4 -44 18 -85 30 -41 13 -100 34 -130 48 -67 32 -129 44 -152
32 -34 -18 -20 -38 40 -54 31 -9 75 -23 97 -32 203 -78 585 -172 765 -188 l75
-6 62 43 c99 69 212 157 294 230 103 90 239 226 239 237 0 28 -26 14 -105 -57z"/>
<path d="M1263 2805 c-25 -18 -31 -50 -10 -58 6 -2 38 0 70 6 31 6 60 7 63 4
4 -3 -7 -22 -25 -42 -28 -33 -42 -75 -24 -75 5 0 29 23 54 50 50 55 77 62 129
35 29 -15 40 -35 20 -35 -15 0 -40 -56 -40 -90 0 -42 24 -96 48 -109 51 -27
96 5 55 38 -25 20 -53 73 -53 101 0 12 11 32 25 45 l26 23 -30 35 c-43 49
-120 79 -211 84 -58 4 -80 1 -97 -12z"/>
<path d="M2201 2770 c0 -14 4 -32 9 -40 8 -12 10 -12 9 5 0 11 -4 29 -9 40 -8
18 -9 18 -9 -5z"/>
<path d="M2072 2740 c0 -14 2 -19 5 -12 2 6 2 18 0 25 -3 6 -5 1 -5 -13z"/>
<path d="M2216 2650 c10 -95 24 -119 17 -30 -3 41 -10 80 -15 85 -6 6 -7 -14
-2 -55z"/>
<path d="M2370 2605 c0 -5 5 -17 10 -25 5 -8 10 -10 10 -5 0 6 -5 17 -10 25
-5 8 -10 11 -10 5z"/>
<path d="M5563 2858 c-43 -9 -93 -55 -93 -84 0 -26 27 -78 52 -102 38 -35 86
-38 128 -10 49 34 58 66 34 125 -25 62 -63 84 -121 71z m37 -33 c18 -21 5 -47
-22 -43 -26 3 -37 36 -16 49 18 12 24 11 38 -6z m30 -86 c-7 -11 -14 -18 -17
-15 -3 3 0 12 7 21 18 21 23 19 10 -6z m-72 -22 c2 -10 -3 -17 -12 -17 -10 0
-16 9 -16 21 0 24 23 21 28 -4z"/>
<path d="M5585 1953 c-29 -6 -95 -53 -118 -84 -10 -15 -21 -47 -24 -71 -7 -59
17 -108 69 -145 36 -25 50 -28 116 -28 72 0 75 1 104 35 29 34 30 38 24 108
-6 78 -20 115 -58 148 -18 17 -87 49 -92 43 -1 -1 -10 -4 -21 -6z m48 -61 c37
-33 9 -82 -48 -82 -63 0 -82 68 -27 99 20 12 50 5 75 -17z m-89 -121 c3 -5 -1
-14 -8 -20 -16 -13 -32 2 -21 19 8 12 22 13 29 1z"/>
<path d="M885 750 c-3 -5 -1 -10 4 -10 6 0 11 5 11 10 0 6 -2 10 -4 10 -3 0
-8 -4 -11 -10z"/>
<path d="M780 700 c0 -5 6 -10 14 -10 8 0 18 5 21 10 3 6 -3 10 -14 10 -12 0
-21 -4 -21 -10z"/>
<path d="M720 501 c-96 -65 -165 -106 -290 -172 -73 -39 -269 -103 -367 -120
l-63 -11 0 -39 0 -39 49 0 c28 0 80 11 119 25 38 14 78 25 88 25 17 0 104 34
218 84 l39 17 -31 -38 c-55 -70 -151 -217 -146 -225 3 -4 36 -8 73 -8 l69 0
82 103 c45 57 95 111 111 121 16 9 34 26 39 36 6 11 24 27 40 35 23 12 33 27
46 73 8 31 18 65 21 76 4 16 1 18 -22 12 -36 -9 -29 12 13 39 25 16 52 59 52
81 0 14 -40 -8 -140 -75z"/>
<path d="M970 564 c1 -14 26 -44 37 -44 13 0 38 29 31 35 -9 10 -68 17 -68 9z"/>
<path d="M5863 348 c-8 -19 -4 -26 34 -55 24 -18 54 -33 68 -33 20 0 25 -5 25
-23 0 -18 21 -41 83 -90 45 -36 98 -80 117 -98 27 -25 46 -34 83 -37 l47 -5
-27 32 c-15 17 -31 31 -35 31 -4 0 -29 20 -55 44 -26 24 -73 64 -103 88 -31
23 -65 51 -75 61 -31 29 -137 107 -145 107 -4 0 -11 -10 -17 -22z"/>
</g>
</svg>
